<svg width="384" height="216" viewBox="0 0 384 216" fill="none" xmlns="http://www.w3.org/2000/svg">
<rect width="384" height="216" fill="url(#paint0_linear_1_75)"/>
<g clip-path="url(#clip0_1_75)">
<path d="M198.667 88C198.667 86.2319 197.964 84.5362 196.714 83.286C195.464 82.0357 193.768 81.3333 192 81.3333C190.232 81.3333 188.536 82.0357 187.286 83.286C186.036 84.5362 185.333 86.2319 185.333 88C185.333 89.7681 186.036 91.4638 187.286 92.7141C188.536 93.9643 190.232 94.6667 192 94.6667C193.768 94.6667 195.464 93.9643 196.714 92.7141C197.964 91.4638 198.667 89.7681 198.667 88Z" stroke="white" stroke-width="3.33333" stroke-linecap="round" stroke-linejoin="round"/>
<path d="M175.333 114.667C175.333 112.899 174.631 111.203 173.381 109.953C172.13 108.702 170.435 108 168.667 108C166.899 108 165.203 108.702 163.953 109.953C162.702 111.203 162 112.899 162 114.667C162 116.435 162.702 118.13 163.953 119.381C165.203 120.631 166.899 121.333 168.667 121.333C170.435 121.333 172.13 120.631 173.381 119.381C174.631 118.13 175.333 116.435 175.333 114.667Z" stroke="white" stroke-width="3.33333" stroke-linecap="round" stroke-linejoin="round"/>
<path d="M222 114.667C222 112.899 221.298 111.203 220.047 109.953C218.797 108.702 217.102 108 215.333 108C213.565 108 211.87 108.702 210.619 109.953C209.369 111.203 208.667 112.899 208.667 114.667C208.667 116.435 209.369 118.13 210.619 119.381C211.87 120.631 213.565 121.333 215.333 121.333C217.102 121.333 218.797 120.631 220.047 119.381C221.298 118.13 222 116.435 222 114.667Z" stroke="white" stroke-width="3.33333" stroke-linecap="round" stroke-linejoin="round"/>
<path d="M198.667 128C198.667 126.232 197.964 124.536 196.714 123.286C195.464 122.036 193.768 121.333 192 121.333C190.232 121.333 188.536 122.036 187.286 123.286C186.036 124.536 185.333 126.232 185.333 128C185.333 129.768 186.036 131.464 187.286 132.714C188.536 133.964 190.232 134.667 192 134.667C193.768 134.667 195.464 133.964 196.714 132.714C197.964 131.464 198.667 129.768 198.667 128Z" stroke="white" stroke-width="3.33333" stroke-linecap="round" stroke-linejoin="round"/>
<path d="M192 94.6667V121.333" stroke="white" stroke-width="3.33333" stroke-linecap="round" stroke-linejoin="round"/>
<path d="M173.053 109.653L187.613 93.0133" stroke="white" stroke-width="3.33333" stroke-linecap="round" stroke-linejoin="round"/>
<path d="M210.947 109.653L196.393 93.02" stroke="white" stroke-width="3.33333" stroke-linecap="round" stroke-linejoin="round"/>
</g>
<defs>
<linearGradient id="paint0_linear_1_75" x1="0" y1="0" x2="384" y2="228.5" gradientUnits="userSpaceOnUse">
<stop stop-color="#277A9E"/>
<stop offset="1" stop-color="#166380"/>
</linearGradient>
<clipPath id="clip0_1_75">
<rect width="80" height="80" fill="white" transform="translate(152 68)"/>
</clipPath>
</defs>
</svg>
